#!OML:ASF E:\motion texture\Top Level 1\Subject 1\Session 1\male.ASF
:FULLY-SPECIFIED
:DEGREES
392
root 1.34824 17.9655 4.19993 272.61 -95.3325 -265.94
lowerback -2.16931 -0.583447 5.2916
upperback -1.8605 -1.00905 5.47168
thorax -0.686806 -0.599681 2.65749
lowerneck -18.1508 -4.13878 -7.57243
upperneck 28.6116 -4.62597 1.66747
head 12.7911 -2.84887 1.1282
rclavicle 8.49804e-015 -2.70347e-014
rhumerus -27.0967 -34.1841 -70.2247
rradius 16.9121
rwrist 2.09685
rhand -8.29471 -47.967
rfingers 7.12502
rthumb 17.6252 -77.1881
lclavicle 8.49804e-015 -2.70347e-014
lhumerus -28.0272 15.5063 84.9073
lradius 30.482
lwrist -24.8704
lhand -14.6699 21.1585
lfingers 7.12502
lthumb 11.4831 50.824
rfemur -21.2392 3.08839 25.5657
rtibia 18.3761
rfoot -1.82176 -11.4954
rtoes 17.4909
lfemur -10.0386 -3.44074 -12.0444
ltibia 48.379
lfoot 4.2189 -3.2823
ltoes -16.5989
393
root 1.21342 17.9763 4.18104 275.026 -95.522 -268.444
lowerback -2.15732 -0.496184 5.5021
upperback -1.88363 -0.897254 5.50333
thorax -0.721167 -0.54828 2.57545
lowerneck -18.1337 -4.13603 -7.55152
upperneck 28.686 -4.62512 1.62897
head 12.8162 -2.85457 1.10962
rclavicle -5.1684e-015 -3.18055e-015
rhumerus -24.5282 -30.8074 -73.2929
rradius 17.8892
rwrist -1.02196
rhand -7.83352 -48.0103
rfingers 7.12502
rthumb 18.069 -77.191
lclavicle -5.1684e-015 -3.18055e-015
lhumerus -27.6985 15.3543 85.2347
lradius 30.2009
lwrist -24.9516
lhand -14.572 20.9633
lfingers 7.12502
lthumb 11.5775 50.6236
rfemur -20.5721 3.30608 25.9553
rtibia 18.251
rfoot -2.0985 -11.3305
rtoes 17.642
lfemur -10.9682 -3.13267 -11.7292
ltibia 49.4943
lfoot 4.32135 -3.17098
ltoes -16.3471
394
root 1.07951 17.9865 4.1626 277.232 -95.7135 -270.741
lowerback -2.14541 -0.409422 5.70609
upperback -1.90492 -0.785816 5.52975
thorax -0.752917 -0.496959 2.49156
lowerneck -18.1172 -4.13435 -7.52894
upperneck 28.759 -4.62742 1.5945
head 12.8412 -2.86085 1.09177
rclavicle -7.7526e-015 7.95139e-015
rhumerus -22.279 -27.3985 -75.9341
rradius 18.9853
rwrist -4.03332
rhand -7.3636 -48.0592
rfingers 7.12502
rthumb 18.5211 -77.1975
lclavicle -7.7526e-015 7.95139e-015
lhumerus -27.3727 15.1683 85.5649
lradius 29.9859
lwrist -24.9718
lhand -14.4605 20.7955
lfingers 7.12502
lthumb 11.6851 50.4496
rfemur -19.9014 3.52457 26.3324
rtibia 18.1221
rfoot -2.3849 -11.1871
rtoes 17.7648
lfemur -11.9047 -2.82977 -11.4259
ltibia 50.5407
lfoot 4.33676 -3.04598
ltoes -16.1328
395
root 0.946424 17.9963 4.14466 279.22 -95.9061 -272.819
lowerback -2.13024 -0.32399 5.90627
upperback -1.92605 -0.675411 5.55029
thorax -0.785725 -0.446144 2.40371
lowerneck -18.1012 -4.13423 -7.50581
upperneck 28.8315 -4.63374 1.56552
head 12.8664 -2.86807 1.07524
rclavicle 6.95746e-015 -1.27222e-014
rhumerus -20.302 -24.0144 -78.1911
rradius 20.197
rwrist -6.9078
rhand -6.88088 -48.1192
rfingers 7.12502
rthumb 18.9854 -77.2127
lclavicle 6.95746e-015 -1.27222e-014
lhumerus -27.0511 14.9503 85.8946
lradius 29.8346
lwrist -24.9347
lhand -14.3471 20.6329
lfingers 7.12502
lthumb 11.7944 50.2808
rfemur -19.2254 3.74214 26.6981
rtibia 17.9854
rfoot -2.67559 -11.0639
rtoes 17.8558
lfemur -12.8449 -2.53618 -11.134
ltibia 51.513
lfoot 4.26937 -2.9061
ltoes -15.9513
396
root 0.814217 18.0054 4.12714 280.994 -96.0969 -274.683
lowerback -2.11485 -0.240464 6.09989
upperback -1.9475 -0.567011 5.56524
thorax -0.818354 -0.396269 2.31368
lowerneck -18.086 -4.13509 -7.48084
upperneck 28.9021 -4.64328 1.54122
head 12.8913 -2.87575 1.05966
rclavicle -7.20594e-016 -3.18055e-015
rhumerus -18.5503 -20.7087 -80.1044
rradius 21.5164
rwrist -9.61763
rhand -6.39464 -48.1587
rfingers 7.12502
rthumb 19.453 -77.2056
lclavicle -7.20594e-016 -3.18055e-015
lhumerus -26.7345 14.6979 86.2247
lradius 29.7516
lwrist -24.8326
lhand -14.2334 20.4851
lfingers 7.12502
lthumb 11.904 50.1267
rfemur -18.5486 3.95839 27.051
rtibia 17.8405
rfoot -2.96648 -10.9605
rtoes 17.9127
lfemur -13.7878 -2.25385 -10.8535
ltibia 52.403
lfoot 4.12489 -2.75049
ltoes -15.7988
397
root 0.682739 18.0139 4.11005 282.584 -96.2862 -276.361
lowerback -2.10056 -0.15859 6.2886
upperback -1.96822 -0.460552 5.57507
thorax -0.849005 -0.34728 2.22101
lowerneck -18.0725 -4.13678 -7.45422
upperneck 28.9696 -4.65555 1.52166
head 12.9154 -2.88364 1.04516
rclavicle 4.4975e-015 7.95139e-015
rhumerus -16.9805 -17.5196 -81.7142
rradius 22.9354
rwrist -12.1479
rhand -5.89506 -48.1903
rfingers 7.12502
rthumb 19.9332 -77.188
lclavicle 4.4975e-015 7.95139e-015
lhumerus -26.4227 14.4134 86.5537
lradius 29.7365
lwrist -24.6706
lhand -14.1181 20.3563
lfingers 7.12502
lthumb 12.0152 49.9914
rfemur -17.8713 4.17232 27.3935
rtibia 17.6894
rfoot -3.25748 -10.8745
rtoes 17.9369
lfemur -14.7286 -1.98308 -10.5825
ltibia 53.2044
lfoot 3.90599 -2.57728
ltoes -15.6749
398
root 0.551794 18.0218 4.09326 283.977 -96.4716 -277.842
lowerback -2.08597 -0.0793508 6.46974
upperback -1.98887 -0.357082 5.57996
thorax -0.879157 -0.299681 2.12738
lowerneck -18.0566 -4.13904 -7.42466
upperneck 29.0305 -4.67068 1.50646
head 12.9365 -2.89166 1.03146
rclavicle 5.69021e-015 -2.8625e-014
rhumerus -15.5576 -14.4747 -83.0559
rradius 24.4412
rwrist -14.4908
rhand -5.38033 -48.1959
rfingers 7.12502
rthumb 20.4279 -77.1413
lclavicle 5.69021e-015 -2.8625e-014
lhumerus -26.1156 14.1016 86.8798
lradius 29.7865
lwrist -24.455
lhand -14.012 20.2336
lfingers 7.12502
lthumb 12.1175 49.8627
rfemur -17.1925 4.38322 27.725
rtibia 17.5338
rfoot -3.55086 -10.8106
rtoes 17.9345
lfemur -15.662 -1.72789 -10.3206
ltibia 53.9098
lfoot 3.61801 -2.38445
ltoes -15.5625
399
root 0.421555 18.0291 4.07691 285.22 -96.6529 -279.169
lowerback -2.07305 -0.00182201 6.64551
upperback -2.00992 -0.25563 5.58015
thorax -0.908225 -0.25302 2.03182
lowerneck -18.042 -4.14106 -7.39261
upperneck 29.0862 -4.68685 1.49508
head 12.9558 -2.89911 1.01867
rclavicle 7.1811e-015 -3.81667e-014
rhumerus -14.2495 -11.5905 -84.1627
rradius 26.0225
rwrist -16.6448
rhand -4.85241 -48.1725
rfingers 7.12502
rthumb 20.9352 -77.0628
lclavicle 7.1811e-015 -3.81667e-014
lhumerus -25.8165 13.762 87.202
lradius 29.9054
lwrist -24.1846
lhand -13.9023 20.1351
lfingers 7.12502
lthumb 12.2233 49.7579
rfemur -16.5186 4.58898 28.0464
rtibia 17.3769
rfoot -3.84581 -10.7634
rtoes 17.9057
lfemur -16.5884 -1.48604 -10.0673
ltibia 54.5144
lfoot 3.26698 -2.1715
ltoes -15.4702
400
root 0.291927 18.0357 4.061 286.34 -96.8298 -280.369
lowerback -2.06244 0.0740464 6.81725
upperback -2.03186 -0.156172 5.5747
thorax -0.936385 -0.207302 1.93261
lowerneck -18.024 -4.1422 -7.35847
upperneck 29.134 -4.70387 1.48916
head 12.9712 -2.90572 1.00763
rclavicle 2.88238e-015 -5.56597e-014
rhumerus -13.0329 -8.87528 -85.0652
rradius 27.6696
rwrist -18.6141
rhand -4.31224 -48.1205
rfingers 7.12502
rthumb 21.4541 -76.9525
lclavicle 2.88238e-015 -5.56597e-014
lhumerus -25.5275 13.3994 87.5162
lradius 30.0914
lwrist -23.8649
lhand -13.795 20.0502
lfingers 7.12502
lthumb 12.3268 49.6669
rfemur -15.8506 4.78951 28.3575
rtibia 17.2198
rfoot -4.1429 -10.7303
rtoes 17.8508
lfemur -17.5043 -1.25698 -9.82235
ltibia 55.0141
lfoot 2.85753 -1.93703
ltoes -15.3918
401
root 0.162797 18.0417 4.04556 287.344 -97.0011 -281.448
lowerback -2.05371 0.148214 6.98339
upperback -2.05403 -0.0587825 5.56475
thorax -0.963186 -0.162526 1.83183
lowerneck -18.0062 -4.14289 -7.32311
upperneck 29.1742 -4.72149 1.48825
head 12.9837 -2.91149 0.998303
rclavicle -3.47873e-015 -2.22639e-014
rhumerus -11.886 -6.33626 -85.787
rradius 29.3685
rwrist -20.4026
rhand -3.76115 -48.0253
rfingers 7.12502
rthumb 21.9833 -76.7961
lclavicle -3.47873e-015 -2.22639e-014
lhumerus -25.2471 13.0188 87.8235
lradius 30.3428
lwrist -23.5008
lhand -13.6886 19.9832
lfingers 7.12502
lthumb 12.4294 49.5937
rfemur -15.1878 4.98356 28.6578
rtibia 17.0622
rfoot -4.44252 -10.711
rtoes 17.7675
lfemur -18.4042 -1.0431 -9.58573
ltibia 55.4023
lfoot 2.39555 -1.6794
ltoes -15.3279
